<svg width="14" height="13" viewBox="0 0 14 13" fill="none" xmlns="http://www.w3.org/2000/svg">
<path id="Vector" d="M13.4859 5.80765H11.5V4.3014C11.5 4.2114 11.4971 4.12317 11.4915 4.03672C12.4156 3.16546 12.4993 2.01703 12.5 0.817964C12.5 0.548902 12.2925 0.317964 12.0234 0.305152C11.9559 0.301985 11.8885 0.312524 11.8252 0.336131C11.7619 0.359739 11.7041 0.395926 11.6552 0.442508C11.6062 0.48909 11.5673 0.545101 11.5406 0.60716C11.5139 0.66922 11.5001 0.73604 11.5 0.803589C11.5 1.67859 11.4418 2.30828 11.1906 2.79859C10.59 1.51265 9.13495 0.801402 6.99995 0.801402C5.7562 0.801402 4.68152 1.08671 3.89277 1.62609C3.42714 1.94453 3.07402 2.34203 2.83964 2.80484C2.56245 2.3239 2.49995 1.70984 2.49995 0.817964C2.49995 0.548902 2.2937 0.317964 2.02495 0.304214C1.95727 0.300826 1.88961 0.311231 1.82607 0.334798C1.76254 0.358364 1.70445 0.3946 1.65535 0.441305C1.60625 0.488009 1.56716 0.544207 1.54044 0.606486C1.51373 0.668764 1.49995 0.735823 1.49995 0.803589C1.49995 1.97953 1.58152 3.10765 2.5137 3.97953C2.50475 4.08494 2.50016 4.19224 2.49995 4.3014V5.80765H0.514017C0.244954 5.80765 0.0140169 6.01453 0.000579384 6.28359C-0.00268045 6.35125 0.00784071 6.41886 0.0315044 6.48233C0.0551681 6.5458 0.0914809 6.6038 0.138239 6.6528C0.184997 6.70181 0.241226 6.74081 0.303512 6.76743C0.365798 6.79405 0.432844 6.80773 0.500579 6.80765H2.50058V7.30359C2.50012 7.87852 2.61035 8.44816 2.82527 8.9814C2.02308 9.69859 1.50558 10.4911 1.49995 11.783C1.49995 12.0561 1.70683 12.2923 1.97995 12.3033C2.04725 12.306 2.1144 12.295 2.17737 12.2711C2.24034 12.2472 2.29783 12.2109 2.3464 12.1642C2.39496 12.1175 2.4336 12.0615 2.45998 11.9996C2.48637 11.9376 2.49997 11.8709 2.49995 11.8036C2.49995 10.9392 2.78433 10.4064 3.31777 9.88734C3.93291 10.7629 4.83925 11.3914 5.87495 11.6605C5.94883 11.6795 6.0261 11.6815 6.10084 11.6661C6.17557 11.6507 6.24579 11.6184 6.30612 11.5716C6.36644 11.5249 6.41527 11.465 6.44887 11.3965C6.48247 11.328 6.49994 11.2527 6.49995 11.1764V3.31765C6.49995 3.04859 6.70683 2.81765 6.97589 2.80421C7.0435 2.80096 7.11106 2.81146 7.17448 2.83509C7.23791 2.85871 7.29588 2.89497 7.34488 2.94166C7.39388 2.98835 7.43289 3.0445 7.45954 3.10672C7.4862 3.16893 7.49995 3.23591 7.49995 3.30359V11.1764C7.49996 11.2527 7.51744 11.328 7.55103 11.3965C7.58463 11.465 7.63347 11.5249 7.69379 11.5716C7.75412 11.6184 7.82434 11.6507 7.89907 11.6661C7.97381 11.6815 8.05107 11.6795 8.12495 11.6605C9.16051 11.3913 10.0667 10.7628 10.6818 9.88734C11.2131 10.4042 11.4971 10.9348 11.4996 11.792C11.4985 11.9213 11.5467 12.0462 11.6343 12.1412C11.722 12.2362 11.8426 12.2943 11.9715 12.3036C12.0395 12.3075 12.1076 12.2974 12.1716 12.274C12.2356 12.2506 12.2941 12.2144 12.3436 12.1676C12.3931 12.1208 12.4325 12.0643 12.4594 12.0017C12.4863 11.9391 12.5001 11.8717 12.5 11.8036C12.5 10.5011 11.9812 9.70265 11.1753 8.9814C11.3902 8.44816 11.5004 7.87852 11.5 7.30359V6.80765H13.5C13.5677 6.80773 13.6347 6.79405 13.697 6.76743C13.7593 6.74081 13.8155 6.70181 13.8623 6.6528C13.9091 6.6038 13.9454 6.5458 13.969 6.48233C13.9927 6.41886 14.0032 6.35125 14 6.28359C13.9868 6.01453 13.755 5.80765 13.4859 5.80765Z" fill="#27282A"/>
</svg>
